<svg width="14" height="12" viewBox="0 0 14 12" fill="none" xmlns="http://www.w3.org/2000/svg">
<path d="M13.1984 2.14709C12.7559 2.37857 12.0894 2.48553 11.8685 2.51636C11.8666 2.50568 11.8648 2.49545 11.863 2.48523C12.6142 2.0206 12.8441 1.14581 12.8441 1.14581C12.3789 1.41177 11.9689 1.55933 11.66 1.64111C11.4864 1.68765 11.3446 1.71283 11.2427 1.72687C10.7746 1.24683 10.1209 0.948975 9.39731 0.948975C7.97366 0.948975 6.81934 2.103 6.81934 3.5271C6.81934 3.57837 6.82071 3.62933 6.82407 3.67984C6.83093 3.80328 6.84665 3.92459 6.87091 4.04254C6.18182 4.03232 3.69449 3.82098 1.63333 1.42673C1.63333 1.42673 0.485565 3.42929 2.41519 4.79724C2.41519 4.79724 1.63333 4.77283 1.21829 4.47971C1.21829 4.47971 1.09622 6.40933 3.31866 7.01968C3.31866 7.01968 2.53726 7.2153 2.14618 7.04425C2.14618 7.04425 2.53711 8.70502 4.491 8.82739C4.491 8.82739 3.08963 10.1104 0.80127 9.92572C1.92676 10.6383 3.26114 11.0508 4.6918 11.0508C8.71448 11.0508 11.9756 7.78979 11.9756 3.76712C11.9756 3.71692 11.9751 3.66672 11.9741 3.61652C11.9751 3.58676 11.9756 3.55716 11.9756 3.5271C11.9756 3.5062 11.9751 3.48529 11.9748 3.46439C12.7185 2.96878 13.1984 2.14709 13.1984 2.14709Z" fill="white"/>
</svg>
